# xmcd CD database file
#
# Track frame offsets:
#	150
#	25245
#	50357
#	73610
#	87302
#
# Disc length: 1401 seconds
#
# Revision: 0
# Processed by: cddbd v1.5.1PL0 Copyright (c) Steve Scherf et al.
# Submitted via: CDex 1.51
#
DISCID=3a057705
DTITLE=GO-BANG'S - Darrin (Samantha Super Remix)
DYEAR=1991
DGENRE=Pop
TTITLE0=Samantha (Darrin Mix)
TTITLE1=Bye Bye Bye (A-Beam Mix)
TTITLE2=Monster Blue (Havana Mix)
TTITLE3=Cream Soda Melon Soda (P・N・D Mix)
TTITLE4=Samantha (Golden Present Mix)
EXTD=YEAR: 1991
EXTT0=
EXTT1=
EXTT2=
EXTT3=
EXTT4=
PLAYORDER=
